<svg width="3286" height="3264" viewBox="0 0 3286 3264" fill="none" xmlns="http://www.w3.org/2000/svg">
<rect y="0.55957" width="3286" height="3263" rx="500" fill="white"/>
<path d="M1609.58 2710.76C1500.56 2710.76 1400.05 2682.76 1308.04 2626.75C1217.03 2570.75 1144.02 2496.24 1089.01 2403.23C1035 2309.22 1008 2206.22 1008 2094.2L1008 1953.19C1008 1942.19 1013 1936.69 1023 1936.69L1368.05 1936.69C1376.05 1936.69 1380.05 1942.19 1380.05 1953.19L1380.05 2094.2C1380.05 2161.21 1402.55 2219.22 1447.56 2268.22C1492.56 2316.23 1546.57 2340.23 1609.58 2340.23C1673.59 2340.23 1728.09 2315.73 1773.1 2266.72C1818.11 2216.72 1840.61 2159.21 1840.61 2094.2C1840.61 2019.2 1791.6 1953.69 1693.59 1897.69C1677.59 1887.69 1656.59 1875.68 1630.58 1861.68C1605.58 1846.68 1575.57 1829.68 1540.57 1810.68C1505.57 1791.68 1471.56 1773.18 1438.56 1755.17C1405.55 1736.17 1373.55 1718.17 1342.54 1701.17C1230.53 1635.16 1147.02 1552.66 1092.01 1453.65C1038 1353.64 1011 1241.63 1011 1117.62C1011 1003.6 1039 900.595 1095.01 808.587C1151.02 717.579 1224.03 645.572 1314.04 592.567C1405.05 538.562 1503.57 511.56 1609.58 511.56C1718.59 511.56 1818.61 538.562 1909.62 592.567C2000.63 647.572 2073.14 720.579 2127.15 811.587C2182.15 902.596 2209.66 1004.6 2209.66 1117.62L2209.66 1369.64C2209.66 1377.64 2205.66 1381.64 2197.66 1381.64L1852.61 1381.64C1844.61 1381.64 1840.61 1377.64 1840.61 1369.64L1837.61 1117.62C1837.61 1045.61 1815.11 987.103 1770.1 942.099C1725.09 897.095 1671.59 874.593 1609.58 874.593C1546.57 874.593 1492.56 898.595 1447.56 946.6C1402.55 994.604 1380.05 1051.61 1380.05 1117.62C1380.05 1184.62 1394.05 1240.63 1422.05 1285.63C1451.06 1330.63 1503.57 1373.64 1579.58 1414.64C1587.58 1418.64 1606.08 1428.64 1635.08 1444.65C1664.09 1460.65 1696.09 1478.65 1731.09 1498.65C1767.1 1517.65 1799.6 1535.15 1828.61 1551.16C1857.61 1566.16 1875.11 1575.16 1881.11 1578.16C1983.13 1635.16 2063.64 1705.17 2122.65 1788.18C2182.65 1871.18 2212.66 1973.19 2212.66 2094.2C2212.66 2211.22 2185.65 2316.23 2131.65 2409.23C2076.64 2502.24 2003.63 2575.75 1912.62 2629.75C1821.61 2683.76 1720.59 2710.76 1609.58 2710.76Z" fill="url(#paint0_linear_773_21)"/>
<g style="mix-blend-mode:overlay">
<path d="M1609.58 2682.76C1500.56 2682.76 1400.05 2654.76 1308.04 2598.75C1217.03 2542.75 1144.02 2468.24 1089.01 2375.23C1035 2281.22 1008 2178.22 1008 2066.2L1008 1925.19C1008 1914.19 1013 1908.69 1023 1908.69L1368.05 1908.69C1376.05 1908.69 1380.05 1914.19 1380.05 1925.19L1380.05 2066.2C1380.05 2133.21 1402.55 2191.22 1447.56 2240.22C1492.56 2288.23 1546.57 2312.23 1609.58 2312.23C1673.59 2312.23 1728.09 2287.73 1773.1 2238.72C1818.11 2188.72 1840.61 2131.21 1840.61 2066.2C1840.61 1991.2 1791.6 1925.69 1693.59 1869.69C1677.59 1859.69 1656.59 1847.68 1630.58 1833.68C1605.58 1818.68 1575.57 1801.68 1540.57 1782.68C1505.57 1763.68 1471.56 1745.18 1438.56 1727.17C1405.55 1708.17 1373.55 1690.17 1342.54 1673.17C1230.53 1607.16 1147.02 1524.66 1092.01 1425.65C1038 1325.64 1011 1213.63 1011 1089.62C1011 975.605 1039 872.595 1095.01 780.587C1151.02 689.579 1224.03 617.572 1314.04 564.567C1405.05 510.562 1503.57 483.56 1609.58 483.56C1718.59 483.56 1818.61 510.562 1909.62 564.567C2000.63 619.572 2073.14 692.579 2127.15 783.587C2182.15 874.596 2209.66 976.605 2209.66 1089.62L2209.66 1341.64C2209.66 1349.64 2205.66 1353.64 2197.66 1353.64L1852.61 1353.64C1844.61 1353.64 1840.61 1349.64 1840.61 1341.64L1837.61 1089.62C1837.61 1017.61 1815.11 959.103 1770.1 914.099C1725.09 869.095 1671.59 846.593 1609.58 846.593C1546.57 846.593 1492.56 870.595 1447.56 918.6C1402.55 966.604 1380.05 1023.61 1380.05 1089.62C1380.05 1156.62 1394.05 1212.63 1422.05 1257.63C1451.06 1302.63 1503.57 1345.64 1579.58 1386.64C1587.58 1390.64 1606.08 1400.64 1635.08 1416.65C1664.09 1432.65 1696.09 1450.65 1731.09 1470.65C1767.1 1489.65 1799.6 1507.15 1828.61 1523.16C1857.61 1538.16 1875.11 1547.16 1881.11 1550.16C1983.13 1607.16 2063.64 1677.17 2122.65 1760.18C2182.65 1843.18 2212.66 1945.19 2212.66 2066.2C2212.66 2183.22 2185.65 2288.23 2131.65 2381.23C2076.64 2474.24 2003.63 2547.75 1912.62 2601.75C1821.61 2655.76 1720.59 2682.76 1609.58 2682.76Z" fill="url(#paint1_linear_773_21)"/>
</g>
<defs>
<linearGradient id="paint0_linear_773_21" x1="398.154" y1="184.877" x2="3330.66" y2="3523.02" gradientUnits="userSpaceOnUse">
<stop stop-color="#AF1952"/>
<stop offset="1" stop-color="#F64C52"/>
</linearGradient>
<linearGradient id="paint1_linear_773_21" x1="398.154" y1="156.877" x2="3330.66" y2="3495.02" gradientUnits="userSpaceOnUse">
<stop offset="0.406122" stop-color="#F5D975"/>
<stop offset="0.889348"/>
</linearGradient>
</defs>
</svg>
